<?xml version="1.0" encoding="UTF-8" standalone="no"?>
<!-- Creator: CorelDRAW X6 -->

<svg
   xmlns:dc="http://purl.org/dc/elements/1.1/"
   xmlns:cc="http://creativecommons.org/ns#"
   xmlns:rdf="http://www.w3.org/1999/02/22-rdf-syntax-ns#"
   xmlns:svg="http://www.w3.org/2000/svg"
   xmlns="http://www.w3.org/2000/svg"
   xmlns:sodipodi="http://sodipodi.sourceforge.net/DTD/sodipodi-0.dtd"
   xmlns:inkscape="http://www.inkscape.org/namespaces/inkscape"
   xml:space="preserve"
   width="3000"
   height="1509.9392"
   version="1.1"
   style="clip-rule:evenodd;fill-rule:evenodd;image-rendering:optimizeQuality;shape-rendering:geometricPrecision;text-rendering:geometricPrecision"
   viewBox="0 0 33333.143 16776.915"
   id="svg2"
   inkscape:version="0.91 r13725"
   sodipodi:docname="drive_xxlg.svg"><title
     id="title4198">Drive</title><metadata
     id="metadata27"><rdf:RDF><cc:Work
         rdf:about=""><dc:format>image/svg+xml</dc:format><dc:type
           rdf:resource="http://purl.org/dc/dcmitype/StillImage" /><dc:title>Drive</dc:title><dc:date>2011</dc:date><dc:subject><rdf:Bag><rdf:li>Drive</rdf:li><rdf:li>Ryan Gosling</rdf:li><rdf:li>2011</rdf:li><rdf:li>Film</rdf:li></rdf:Bag></dc:subject></cc:Work></rdf:RDF></metadata><sodipodi:namedview
     pagecolor="#ffffff"
     bordercolor="#666666"
     borderopacity="1"
     objecttolerance="10"
     gridtolerance="10"
     guidetolerance="10"
     inkscape:pageopacity="0"
     inkscape:pageshadow="2"
     inkscape:window-width="1366"
     inkscape:window-height="715"
     id="namedview25"
     showgrid="false"
     units="px"
     showborder="true"
     inkscape:showpageshadow="false"
     fit-margin-top="20"
     fit-margin-right="20"
     fit-margin-bottom="20"
     fit-margin-left="20"
     inkscape:zoom="0.272973"
     inkscape:cx="1739.9505"
     inkscape:cy="754.9696"
     inkscape:window-x="-8"
     inkscape:window-y="-8"
     inkscape:window-maximized="1"
     inkscape:current-layer="svg2" /><defs
     id="defs4"><style
       type="text/css"
       id="style6"><![CDATA[
    .fil0 {fill:none;fill-rule:nonzero}
   ]]></style></defs><g
     id="g4188"
     style="fill:#e84298;fill-opacity:1"
     transform="matrix(0.49548339,0,0,0.49548339,-853.96891,-511.63664)"><g
       id="_159540888"
       style="fill:#e84298;fill-opacity:1"><path
         class="fil0"
         d="m 37001,26248 c 0,-39 0,-78 0,-117 169,-67 219,-223 351,-312 120,-81 270,-74 389,-156 103,-71 113,-218 195,-312 26,0 52,0 78,0 42,-47 32,-115 78,-156 26,0 52,0 78,0 0,-26 0,-52 0,-78 67,-87 159,-230 234,-312 36,-39 118,-41 156,-78 0,-26 0,-52 0,-78 71,-66 172,-81 234,-156 0,-26 0,-52 0,-78 26,0 52,0 78,0 0,-26 0,-52 0,-78 26,0 52,0 78,0 65,-78 130,-156 195,-234 91,-68 186,-83 273,-156 0,-26 0,-52 0,-78 39,0 78,0 117,0 0,-26 0,-52 0,-78 88,-61 182,-19 273,-78 110,-71 116,-282 195,-389 168,-228 454,-463 857,-467 179,139 469,59 701,156 433,181 1061,710 1246,1129 262,594 148,1491 312,2181 0,286 0,571 0,857 22,63 129,133 156,195 13,104 26,208 39,312 50,145 182,336 234,467 13,78 26,156 39,234 134,215 373,294 545,467 271,0 730,27 896,-78 0,-26 0,-52 0,-78 95,-73 222,-78 312,-156 205,-176 419,-369 623,-545 57,-49 133,-34 195,-78 284,-204 579,-485 818,-740 47,-50 32,-143 78,-195 11,-13 192,-114 195,-117 13,-65 26,-130 39,-195 29,-34 126,-44 156,-78 13,-52 26,-104 39,-156 197,-217 425,-449 584,-701 98,-155 131,-400 234,-545 3,-5 195,-117 195,-117 28,-35 43,-189 78,-234 26,0 52,0 78,0 37,-54 43,-207 78,-273 189,-362 330,-805 545,-1168 26,-13 52,-26 78,-39 39,-117 78,-234 117,-350 208,-308 1477,-1032 1986,-1051 44,102 105,81 156,156 52,143 104,286 156,428 57,217 -2,621 -39,779 0,234 0,467 0,701 -102,416 -146,994 -234,1402 -28,131 58,232 78,312 0,363 0,727 0,1090 -67,285 -77,690 -78,1013 0,169 0,338 0,506 -52,220 -34,575 -39,857 -12,684 33,1224 156,1830 87,31 212,40 351,39 195,-182 390,-363 584,-545 170,-190 277,-411 428,-623 56,-79 180,-153 234,-234 119,-177 154,-368 273,-545 207,-311 461,-647 662,-974 62,-101 52,-213 117,-312 88,-132 262,-254 351,-389 26,-78 52,-156 78,-234 88,-143 233,-316 312,-467 13,-65 26,-130 39,-195 26,0 52,0 78,0 63,-81 29,-173 78,-273 l 117,-78 c 0,-52 0,-104 0,-156 39,-91 159,-186 195,-273 0,-52 0,-104 0,-156 166,-401 449,-834 623,-1246 200,-473 352,-1028 506,-1519 64,-202 15,-389 117,-545 34,-51 165,-85 195,-117 13,-52 26,-104 39,-156 83,-115 436,-335 623,-350 140,-108 452,-76 623,-39 25,95 56,140 117,195 33,1055 -370,1927 -701,2648 -99,216 -70,476 -156,701 -151,396 -348,888 -506,1285 -49,122 -84,254 -117,350 0,65 0,130 0,195 -26,0 -52,0 -78,0 0,65 0,130 0,195 -26,0 -52,0 -78,0 0,65 0,130 0,195 -26,13 -52,26 -78,39 -62,119 -47,205 -117,312 -39,26 -78,52 -117,78 -56,98 -55,220 -117,312 -39,13 -78,26 -117,39 -52,156 -104,312 -156,467 -39,26 -78,52 -117,78 -81,130 -63,278 -156,389 -26,0 -52,0 -78,0 0,26 0,52 0,78 -39,26 -78,52 -117,78 -108,164 -120,357 -234,506 -91,119 -284,165 -389,273 -58,59 -55,179 -117,234 -39,13 -78,26 -117,39 -279,351 -456,856 -701,1246 -54,86 -177,154 -234,234 -145,203 -224,441 -389,623 -33,37 -122,41 -156,78 0,26 0,52 0,78 -61,76 -162,90 -234,156 0,26 0,52 0,78 -26,0 -52,0 -78,0 0,26 0,52 0,78 -152,141 -346,217 -506,350 -65,117 -130,234 -195,350 -445,500 -1434,1197 -2337,623 -48,-31 -197,-148 -234,-195 -13,-52 -26,-104 -39,-156 -30,-32 -158,-67 -195,-117 -208,-282 -351,-689 -467,-1051 -94,-292 11,-1086 -78,-1246 26,0 52,0 78,0 0,-26 0,-52 0,-78 -3,-43 -104,-190 -117,-234 -65,-215 -28,-509 -78,-701 -149,-569 154,-1544 0,-1986 -296,144 -474,454 -740,623 -231,147 -484,195 -701,350 -111,79 -212,259 -312,350 -26,0 -52,0 -78,0 -131,106 -224,277 -351,389 -64,57 -208,99 -273,156 0,26 0,52 0,78 -26,0 -52,0 -78,0 -85,63 -182,181 -273,234 -39,0 -78,0 -117,0 0,26 0,52 0,78 -39,0 -78,0 -117,0 -131,76 -261,231 -389,312 -285,178 -571,250 -896,389 -190,81 -428,247 -623,312 -363,120 -883,-18 -1168,-78 -39,13 -78,26 -117,39 -109,-2 -377,-62 -467,-117 -116,-71 -206,-230 -312,-312 -39,0 -78,0 -117,0 0,-26 0,-52 0,-78 -58,-48 -135,-32 -195,-78 -277,-216 -665,-758 -818,-1090 -140,-303 -198,-637 -312,-935 0,-52 0,-104 0,-156 -26,0 -52,0 -78,0 -100,-94 -246,-272 -312,-389 -212,-382 -282,-1222 -818,-1246 -55,-32 -168,-6 -312,0 -196,272 -508,501 -779,701 -52,65 -104,130 -156,195 -81,59 -193,50 -273,117 -13,39 -26,78 -39,117 -80,83 -185,117 -273,195 -96,86 -168,236 -273,312 -97,70 -222,78 -312,156 -117,101 -218,266 -351,350 -39,0 -78,0 -117,0 -13,39 -26,78 -39,117 -169,128 -385,174 -545,312 -111,95 -224,232 -351,312 -173,108 -326,133 -506,234 -107,60 -211,209 -312,273 -39,0 -78,0 -117,0 -13,39 -26,78 -39,117 -136,86 -294,72 -428,156 -335,208 -661,509 -1013,701 -172,94 -415,173 -584,234 -65,0 -130,0 -195,0 -13,26 -26,52 -39,78 -115,56 -198,20 -312,78 -98,50 -214,182 -312,234 -751,402 -1694,848 -2687,467 -235,-90 -454,-129 -584,-312 -335,-468 -60,-1444 156,-1869 102,-200 193,-419 312,-623 26,-13 52,-26 78,-39 13,-117 26,-234 39,-350 57,-207 137,-454 195,-623 0,-78 0,-156 0,-234 280,-826 406,-1534 623,-2414 68,-276 -29,-628 -78,-818 0,-104 0,-208 0,-312 -194,-598 -409,-1290 -974,-1519 -307,-124 -558,48 -740,156 -65,13 -130,26 -195,39 -18,13 -102,180 -117,195 -26,0 -52,0 -78,0 -65,78 -130,156 -195,234 -59,43 -143,29 -195,78 0,26 0,52 0,78 -61,67 -165,177 -234,234 -26,0 -52,0 -78,0 0,26 0,52 0,78 -40,39 -116,38 -156,78 0,26 0,52 0,78 -26,0 -52,0 -78,0 0,26 0,52 0,78 -26,0 -52,0 -78,0 0,26 0,52 0,78 -39,13 -78,26 -117,39 -13,39 -26,78 -39,117 -26,0 -52,0 -78,0 0,26 0,52 0,78 -26,0 -52,0 -78,0 -112,122 -170,331 -273,467 -35,46 -117,38 -156,78 -149,153 -207,387 -351,545 -33,36 -124,42 -156,78 -145,163 -183,405 -312,584 -192,268 -580,516 -779,818 -136,207 -176,421 -312,623 -177,264 -523,443 -701,701 -101,146 15,238 -78,389 -74,121 -250,210 -351,312 0,26 0,52 0,78 -249,258 -696,691 -1013,857 -298,156 -1431,153 -1714,-39 -198,-134 -211,-389 -351,-584 -99,-138 -282,-185 -351,-389 0,-143 0,-286 0,-428 -5,-535 -77,-391 195,-740 26,-78 52,-156 78,-234 26,0 52,0 78,0 13,-52 26,-104 39,-156 53,-78 336,-407 428,-428 30,-169 80,-114 117,-273 432,-29 810,-309 1129,-467 52,0 104,0 156,0 78,-50 186,-186 273,-234 115,-63 301,-73 389,-156 83,-78 105,-241 195,-312 26,0 52,0 78,0 65,-78 130,-156 195,-234 26,0 52,0 78,0 0,-26 0,-52 0,-78 72,-54 173,-19 234,-78 34,-33 83,-196 117,-234 26,0 52,0 78,0 0,-26 0,-52 0,-78 39,-39 116,-39 156,-78 0,-26 0,-52 0,-78 172,-159 413,-310 545,-506 102,-151 90,-352 195,-506 34,-50 112,-37 156,-78 0,-26 0,-52 0,-78 114,-112 294,-183 389,-312 56,-75 56,-164 117,-234 26,0 52,0 78,0 244,-274 347,-652 506,-1013 88,-200 274,-419 351,-623 0,-65 0,-130 0,-195 50,-153 146,-367 195,-545 0,-117 0,-234 0,-350 14,-46 105,-157 117,-195 30,-95 -53,-132 0,-273 45,-121 190,-268 234,-389 0,-104 0,-208 0,-312 222,-744 487,-1424 1168,-1713 204,-87 747,-3 1052,0 67,135 148,73 234,156 0,26 0,52 0,78 143,130 286,260 428,389 0,39 0,78 0,117 48,70 183,115 234,195 91,208 182,415 273,623 372,604 693,1276 1091,1869 112,167 304,312 428,467 0,39 0,78 0,117 26,0 52,0 78,0 91,80 187,186 273,273 32,33 45,128 78,156 67,56 240,92 312,156 290,258 562,565 896,779 162,104 435,20 623,117 87,45 396,475 428,584 0,143 0,286 0,428 1,744 -77,845 -351,1285 -90,145 -100,293 -195,428 -143,130 -286,260 -428,389 -174,237 -223,528 -351,818 -247,561 -533,1089 -545,1908 104,56 165,78 351,78 129,-111 306,-107 467,-195 13,-26 26,-52 39,-78 127,-80 250,-80 389,-156 13,-26 26,-52 39,-78 65,-13 130,-26 195,-39 13,-39 26,-78 39,-117 39,0 78,0 117,0 170,-97 345,-278 506,-389 39,0 78,0 117,0 39,-52 78,-104 117,-156 217,-154 446,-236 662,-389 39,-52 78,-104 117,-156 65,-13 130,-26 195,-39 48,-37 483,-468 506,-506 53,-87 21,-158 78,-234 72,-96 218,-79 312,-156 282,-231 580,-595 1013,-662 z"
         id="path17"
         style="fill:#e84298;fill-opacity:1;fill-rule:nonzero"
         inkscape:connector-curvature="0" /></g><g
       id="g4181"
       style="fill:#e84298;fill-opacity:1"><g
         style="fill:#e84298;fill-opacity:1"
         id="_159540120"><path
           inkscape:connector-curvature="0"
           style="fill:#e84298;fill-opacity:1;fill-rule:nonzero"
           id="path11"
           d="m 17020,7711 c 83,13 74,5 117,39 94,35 240,126 312,195 0,26 0,52 0,78 95,67 222,11 312,78 33,25 46,128 78,156 55,49 135,33 195,78 84,63 119,199 195,273 76,74 186,91 273,156 116,86 194,267 312,350 65,13 130,26 195,39 147,91 289,254 428,350 234,161 633,313 701,623 39,0 78,0 117,0 60,154 376,441 506,545 0,52 0,104 0,156 39,0 78,0 117,0 131,345 492,582 701,857 0,39 0,78 0,117 40,63 153,129 195,195 26,78 52,156 78,234 39,0 78,0 117,0 13,52 26,104 39,156 28,39 157,196 195,234 26,0 52,0 78,0 28,35 42,193 78,234 26,0 52,0 78,0 49,52 75,186 117,234 26,0 52,0 78,0 66,71 212,281 234,389 39,0 78,0 117,0 0,26 0,52 0,78 78,111 7,293 78,428 26,0 52,0 78,0 0,65 0,130 0,195 18,46 80,202 117,273 155,298 326,697 428,1051 83,290 83,640 156,896 13,260 26,519 39,779 86,365 90,1116 0,1480 -13,247 -26,493 -39,740 -86,321 -165,732 -312,1013 -101,192 -302,382 -389,584 -91,209 -60,413 -156,623 -205,451 -430,942 -701,1324 0,39 0,78 0,117 -64,108 -206,205 -273,312 -64,101 -54,210 -117,312 -39,63 -161,133 -195,195 -13,78 -26,156 -39,234 -24,46 -128,111 -156,156 -93,149 -97,322 -195,467 -65,52 -130,104 -195,156 0,26 0,52 0,78 -69,96 -203,178 -273,273 0,26 0,52 0,78 -52,39 -104,78 -156,117 -114,157 -159,345 -273,506 -179,252 -457,477 -623,740 0,39 0,78 0,117 -26,0 -52,0 -78,0 -59,66 -57,165 -117,234 -29,33 -129,44 -156,78 -52,156 -104,312 -156,467 -32,38 -118,43 -156,78 0,26 0,52 0,78 -39,0 -78,0 -117,0 -45,37 -82,197 -117,234 -26,0 -52,0 -78,0 -45,39 -37,112 -78,156 -39,41 -111,41 -156,78 -40,33 -41,123 -78,156 -39,0 -78,0 -117,0 -37,31 -91,210 -117,234 -39,0 -78,0 -117,0 0,26 0,52 0,78 -48,42 -115,31 -156,78 0,26 0,52 0,78 -54,53 -216,103 -273,156 -183,170 -301,438 -506,584 -52,13 -104,26 -156,39 0,26 0,52 0,78 -44,49 -100,36 -156,78 -65,78 -130,156 -195,234 -113,82 -248,104 -351,195 -125,111 -213,293 -351,389 -92,65 -215,50 -312,117 -156,208 -312,415 -467,623 -236,177 -475,270 -740,428 -217,130 -409,444 -623,584 -234,78 -467,156 -701,234 -156,71 -288,265 -467,312 -78,-13 -156,-26 -234,-39 -34,10 -122,100 -156,117 -129,64 -310,112 -428,156 -350,78 -701,156 -1052,234 -262,88 -591,238 -857,312 -221,0 -441,0 -662,0 -533,129 -1298,76 -1947,78 -403,-527 -1290,-436 -1091,-1636 14,-83 59,-220 78,-312 489,-107 539,-408 857,-662 64,-51 235,-118 312,-156 0,-13 0,-26 0,-39 65,0 130,0 195,0 26,-39 52,-78 78,-117 93,-59 264,-120 351,-156 188,-79 338,-39 545,-117 121,-45 260,-191 389,-234 376,0 753,0 1129,0 l 78,-78 c 195,-39 390,-78 584,-117 477,-197 975,-431 1402,-701 87,-55 183,-184 273,-234 39,0 78,0 117,0 121,-67 264,-209 389,-273 39,0 78,0 117,0 0,-26 0,-52 0,-78 52,0 104,0 156,0 132,-88 249,-264 389,-350 65,-13 130,-26 195,-39 272,-195 464,-540 740,-740 146,-106 346,-140 506,-234 142,-83 291,-262 428,-350 129,-83 314,-96 428,-195 0,-26 0,-52 0,-78 74,-66 171,-80 234,-156 0,-26 0,-52 0,-78 13,-14 183,-100 195,-117 0,-52 0,-104 0,-156 26,-34 131,-35 156,-78 0,-52 0,-104 0,-156 93,-138 203,-64 234,-312 39,0 78,0 117,0 0,-39 0,-78 0,-117 572,-318 953,-1271 1324,-1830 254,-383 555,-735 818,-1129 51,-76 190,-154 234,-234 13,-78 26,-156 39,-234 51,-118 183,-240 234,-350 76,-168 48,-290 117,-467 85,-220 279,-467 351,-701 0,-156 0,-312 0,-467 0,-590 5,-1189 -117,-1636 0,-350 0,-701 0,-1051 -41,-141 -147,-375 -195,-506 -13,-117 -26,-234 -39,-350 -217,-487 -444,-1017 -740,-1441 -67,-97 -204,-179 -273,-273 -89,-122 -130,-282 -234,-389 -39,-40 -121,-32 -156,-78 -72,-96 -79,-216 -156,-312 -280,-347 -604,-715 -935,-1013 -63,-57 -209,-99 -273,-156 -192,-171 -376,-393 -584,-545 -53,-39 -191,-76 -234,-117 0,-26 0,-52 0,-78 -74,-87 -197,-146 -273,-234 0,-26 0,-52 0,-78 -39,0 -78,0 -117,0 -37,-31 -43,-119 -78,-156 -26,0 -52,0 -78,0 -34,-38 -73,-201 -117,-234 -52,0 -104,0 -156,0 0,-26 0,-52 0,-78 -77,-58 -261,-125 -312,-78 -228,-216 -486,-306 -779,-467 -86,-48 -184,-191 -273,-234 -65,0 -130,0 -195,0 -13,-39 -26,-78 -39,-117 -168,-123 -379,-148 -545,-273 0,-26 0,-52 0,-78 -52,0 -104,0 -156,0 0,-26 0,-52 0,-78 -79,-54 -166,-19 -234,-78 -31,-27 -46,-133 -78,-156 -52,0 -104,0 -156,0 0,-26 0,-52 0,-78 -39,0 -78,0 -117,0 0,-26 0,-52 0,-78 -39,0 -78,0 -117,0 0,-26 0,-52 0,-78 -52,0 -104,0 -156,0 0,-26 0,-52 0,-78 -52,-13 -104,-26 -156,-39 0,-26 0,-52 0,-78 -65,-13 -130,-26 -195,-39 -190,-120 -489,-459 -740,-506 -43,36 -6,14 -78,39 -75,288 -253,623 -351,935 -52,402 -104,805 -156,1207 -194,724 -268,1369 -545,1986 13,104 26,208 39,312 -77,363 -87,763 -195,1129 -305,1037 -398,2200 -701,3271 -78,278 35,826 -78,1051 -39,13 -78,26 -117,39 -30,46 -137,517 -156,584 -105,377 69,870 -39,1285 -135,520 -295,1023 -428,1558 -117,469 59,991 -39,1402 -225,944 -272,1980 -506,2882 -78,300 -50,621 -117,896 0,143 0,286 0,428 -30,89 -158,230 -195,312 0,52 0,104 0,156 -109,268 -330,544 -467,779 0,39 0,78 0,117 -200,360 -523,670 -779,974 0,26 0,52 0,78 -88,86 -258,139 -351,234 -428,40 -936,69 -1052,-312 -120,-144 -183,-684 -117,-974 6,-26 58,-109 39,-195 -43,-191 -176,-607 -117,-857 58,-245 113,-564 117,-779 5,-257 -39,-690 -39,-1013 0,-149 49,-334 39,-428 -17,-160 -95,-520 -39,-740 136,-531 195,-1024 195,-1752 -13,-350 -26,-701 -39,-1051 91,-378 56,-920 156,-1324 77,-312 -25,-747 39,-1013 -13,-143 -26,-286 -39,-428 l 78,-78 c 15,-73 -41,-160 -39,-273 26,-376 52,-753 78,-1129 39,-260 78,-519 117,-779 -40,-209 -199,-987 -156,-1168 136,-570 166,-1209 312,-1791 60,-240 15,-534 39,-662 98,-515 39,-881 39,-1441 0,-182 0,-363 0,-545 48,-196 19,-484 78,-701 67,-245 162,-552 234,-779 86,-272 32,-558 195,-740 104,-99 232,-235 351,-312 52,-13 104,-26 156,-39 181,-125 335,-357 506,-506 209,-183 305,-462 545,-623 214,-143 820,-231 857,-506 34,-43 25,-34 39,-117 -507,-218 -1026,-511 -1558,-701 -65,0 -130,0 -195,0 -243,-86 -557,-199 -818,-273 -143,-13 -286,-26 -428,-39 -51,-25 -88,-168 -117,-195 -52,-13 -104,-26 -156,-39 -39,-52 -78,-104 -117,-156 -65,-47 -131,-30 -195,-78 -65,-104 -130,-208 -195,-312 -108,-85 -225,-82 -351,-156 -13,-26 -26,-52 -39,-78 -39,0 -78,0 -117,0 -78,-46 -156,-188 -234,-234 -356,-208 -1161,-425 -1324,-779 -187,-190 -78,-414 -156,-740 -49,-205 21,-566 -39,-818 -84,-349 -153,-729 -156,-1129 117,-39 234,-78 351,-117 119,-67 93,-159 273,-195 78,71 322,121 389,78 111,-110 71,-154 312,-156 138,143 461,331 662,389 221,-26 441,-52 662,-78 240,55 699,252 935,350 65,0 130,0 195,0 183,61 441,168 623,234 52,0 104,0 156,0 13,26 26,52 39,78 52,0 104,0 156,0 63,25 179,130 234,156 52,0 104,0 156,0 178,89 497,444 701,506 121,37 616,-70 818,0 81,28 342,174 428,234 38,26 46,133 78,156 78,13 156,26 234,39 186,95 394,266 584,350 149,66 256,0 389,78 0,26 0,52 0,78 65,0 130,0 195,0 229,72 566,150 779,234 169,13 338,26 506,39 31,12 388,274 428,312 13,39 26,78 39,117 66,50 227,-6 234,0 497,410 1120,742 1675,1090 384,241 801,397 1168,662 221,159 439,388 662,545 211,148 720,399 779,662 z"
           class="fil0" /></g><g
         style="fill:#e84298;fill-opacity:1"
         id="_159540816"><path
           inkscape:connector-curvature="0"
           style="fill:#e84298;fill-opacity:1;fill-rule:nonzero"
           id="path14"
           d="m 42804,15227 c 437,-11 906,127 896,584 249,208 20,1034 -39,1246 -76,273 2,483 -117,701 l -78,117 c -26,0 -52,0 -78,0 0,26 0,52 0,78 -40,47 -148,101 -195,156 0,26 0,52 0,78 -39,0 -78,0 -117,0 -86,52 -184,189 -273,234 -52,0 -104,0 -156,0 0,26 0,52 0,78 -102,64 -203,23 -312,78 -13,26 -26,52 -39,78 -39,0 -78,0 -117,0 0,26 0,52 0,78 -39,0 -78,0 -117,0 -13,26 -26,52 -39,78 -467,-52 -935,-104 -1402,-156 -133,-330 -400,-670 -506,-1051 -204,-731 680,-1542 1052,-1752 65,0 130,0 195,0 0,-26 0,-52 0,-78 89,-48 196,3 273,-39 143,-79 233,-277 389,-350 188,-89 624,-47 779,-156 z"
           class="fil0" /></g><path
         style="fill:#e84298;fill-opacity:1;fill-rule:nonzero"
         d="m 5846.6133,1812.0801 c -15.5701,12.06 -53.731,12.1485 -73.6211,21.0586 l -3.5098,7.0215 c -25.3801,12.78 -48.6892,19.1696 -70.1094,35.0097 -19.9801,14.7601 -33.9304,39.6002 -52.5605,56.0703 l -7.0215,0 c -7.29,5.6701 -13.9485,15.1205 -21.0586,21.0606 l -7.0215,0 0,10.5293 -14.039,3.5097 0,7.0196 c -7.1101,6.84 -18.0003,10.3507 -24.5703,17.5508 l 0,7.0195 c -16.7401,16.2001 -43.1103,25.8309 -56.0704,45.541 l 0,10.5293 c -3.42,4.23 -17.3705,12.0607 -21.0605,17.5508 -11.7901,17.6401 -25.4697,44.8197 -35.0098,63.0898 l -3.5097,17.5508 c -5.7601,6.75 -19.7103,5.849 -24.5703,14.0391 -5.0401,8.46 -2.7895,16.4702 -7.0196,24.5703 -9.99,18.9901 -24.4816,41.4 -35.0117,59.5801 l 0,10.5312 c -27.6301,39.0602 -55.5293,80.6409 -70.1094,133.2012 -1.17,32.6702 -2.3397,65.4294 -3.5097,98.0996 -5.1301,20.7001 -2.1606,81.9912 7.0195,101.6113 l 7.0195,0 c 2.52,6.7501 -6.6598,25.8295 -3.5097,38.5196 4.86,19.4401 6.4809,49.8612 14.041,70.1113 7.47,20.0701 23.4898,40.6799 31.5898,59.5801 5.0401,11.7 2.6993,26.3697 10.5293,35.0097 l 7.0215,0 14.0391,17.5508 c 8.82,6.3 19.98,7.019 28.08,14.0391 63.9904,55.0803 127.8018,76.5904 234.9024,56.0703 l 21.0586,3.5097 c 15.4801,-0.72 56.8812,-5.1292 70.1113,-10.5293 74.5204,-30.2401 141.7497,-67.6808 210.3301,-105.121 l 10.5312,-7.0196 0,-7.0195 10.5293,0 c 9.5401,-5.67 18.3601,-19.4403 28.0801,-24.5703 l 21.0606,-3.5098 c 8.37,-4.32 19.8,-16.5605 28.08,-21.0605 19.3502,-10.6201 45.54,-12.42 59.5801,-28.0801 5.5801,-6.21 2.6115,-13.1405 7.0215,-21.0606 6.75,-11.97 22.7701,-25.1094 28.0801,-38.5195 11.52,-28.9802 -11.7006,-74.5217 7.0195,-94.5918 -0.18,-18.1801 -3.6895,-23.0397 -7.0195,-35.0098 -60.7504,0.9901 -45.8107,32.5802 -77.1309,56.0704 l -10.5312,0 c -5.5801,3.15 -18.2703,11.521 -24.5703,14.041 l -14.0391,0 0,7.0195 -10.5293,0 c -8.8201,4.23 -17.55,8.459 -28.0801,14.0391 l -3.5117,7.0215 -10.5293,0 c -7.92,4.41 -16.6503,16.8285 -24.5703,21.0585 l -31.5898,7.0215 c -2.8801,1.17 -8.3693,9.5393 -10.5293,10.5293 l -24.5704,3.5098 c -40.4102,19.2601 -135.3623,53.1899 -199.8027,35.0098 -48.7803,-13.7701 -62.8191,-48.2398 -101.6094,-63.0899 -2.79,-19.8901 -21.8696,-99.09 -7.0195,-119.1601 11.0701,-24.8402 46.1695,-26.1012 66.5996,-42.0313 l 0,-7.0195 10.5293,0 0,-7.0196 c 3.87,-3.51 10.441,-3.4195 14.041,-7.0195 l 0,-7.0215 7.0196,0 3.5097,-10.5293 c 15.5701,-11.25 33.5707,-14.3102 49.0508,-24.5703 27.7202,-18.4501 52.6507,-41.4897 77.1309,-63.0898 5.85,-5.1301 18.8102,-8.911 24.5703,-14.041 l 0,-7.0196 c 20.9701,-18.7201 45.0897,-34.6502 63.0898,-56.0703 l 0,-7.0195 c 4.32,-4.23 12.9608,-2.9715 17.5508,-7.0215 l 0,-7.0195 c 4.23,-3.78 10.439,-2.7895 14.0391,-7.0196 l 0,-7.0195 c 11.25,-12.0601 29.0694,-21.3316 38.5195,-35.0117 10.08,-14.5801 21.332,-33.4787 28.082,-49.0488 l 3.5098,-21.0606 c 5.85,-9.27 22.5,-14.0402 28.0801,-24.5703 9.54,-18.0001 4.8592,-33.3002 10.5293,-56.0703 34.0202,-135.6308 -60.8405,-208.8903 -192.7813,-206.8203 l -0.2695,0 z m -69.8399,283.7715 10.5293,0 c 1.53,2.16 2.2046,3.1718 3.0371,4.0156 0.8325,0.8437 1.8225,1.5189 3.9825,3.0039 -0.011,2.9138 -0.1747,5.84 -0.4805,8.7695 -0.3058,2.9295 -0.7531,5.8621 -1.3281,8.791 -0.5751,2.929 -1.2787,5.8535 -2.0977,8.7657 -0.8189,2.9121 -1.7535,5.8124 -2.791,8.6914 -1.0375,2.8789 -2.1776,5.7369 -3.4082,8.5664 -1.2306,2.8295 -2.5527,5.6308 -3.9512,8.3945 -2.7968,5.5275 -5.9028,10.9057 -9.2187,16.0723 -3.316,5.1666 -6.8405,10.1216 -10.4727,14.7969 -3.6322,4.6752 -7.3716,9.0714 -11.1172,13.125 -3.7455,4.0535 -7.4982,7.763 -11.1543,11.0644 -3.6561,3.3014 -7.2163,6.1945 -10.58,8.6133 -1.08,0.765 -2.9023,1.3945 -5.0918,1.957 -2.1896,0.5625 -4.7468,1.0577 -7.295,1.5527 -2.5481,0.4951 -5.0883,0.9903 -7.2441,1.5528 -1.0779,0.2812 -2.0594,0.5789 -2.8984,0.9023 -0.839,0.3235 -1.5348,0.6722 -2.0411,1.0547 l 0,7.0215 c -2.2725,2.1375 -4.5288,4.5323 -6.7929,7.0313 -2.2641,2.4989 -4.5356,5.1002 -6.8418,7.6484 -2.3063,2.5481 -4.6459,5.0429 -7.0449,7.3281 -2.3991,2.2852 -4.8579,4.3623 -7.4004,6.0723 -1.845,1.2487 -3.7529,2.3746 -5.7032,3.414 -1.9503,1.0394 -3.9439,1.9919 -5.957,2.8926 -4.0261,1.8014 -8.1343,3.3958 -12.1562,5.0664 -4.0219,1.6707 -7.9574,3.4163 -11.6348,5.5215 -1.8387,1.0526 -3.612,2.1957 -5.3008,3.4629 -1.6887,1.2672 -3.2928,2.6604 -4.7891,4.2129 l -21.0585,-3.5117 c -1.1701,-2.205 -2.0925,-4.0269 -3.1387,-5.7032 -1.0463,-1.6762 -2.2178,-3.2061 -3.8828,-4.8261 0.3937,-2.925 0.9077,-5.7495 1.5312,-8.4805 0.6236,-2.7309 1.358,-5.3676 2.1914,-7.9199 0.8334,-2.5524 1.7658,-5.0209 2.7891,-7.4102 1.0233,-2.3892 2.1369,-4.6998 3.3301,-6.9414 1.1932,-2.2416 2.4654,-4.414 3.8086,-6.5234 1.3432,-2.1094 2.7572,-4.1558 4.2304,-6.1485 2.9465,-3.9853 6.1336,-7.752 9.4805,-11.3632 3.3469,-3.6113 6.8537,-7.0668 10.4414,-10.4278 3.5877,-3.3609 7.2549,-6.6289 10.9238,-9.8632 3.669,-3.2344 7.3392,-6.4364 10.9297,-9.668 3.5906,-3.2316 7.1026,-6.4912 10.4551,-9.8438 l 0,-7.0215 17.5488,-14.039 0,-7.0195 c 1.125,-1.1026 2.4485,-1.8676 3.8828,-2.4512 1.4344,-0.5836 2.9797,-0.9864 4.5547,-1.3633 1.575,-0.3769 3.1797,-0.7286 4.7266,-1.2109 1.5469,-0.4824 3.0367,-1.0961 4.3867,-1.9961 3.8925,-2.6325 8.4208,-5.6302 13.1992,-8.8828 4.7785,-3.2527 9.8074,-6.7596 14.7012,-10.4102 4.8938,-3.6506 9.6522,-7.4451 13.8906,-11.2715 2.1193,-1.9132 4.109,-3.8345 5.9199,-5.75 1.811,-1.9155 3.4434,-3.8248 4.8497,-5.7148 4.455,-0.135 7.7184,-0.158 10.4296,-0.5742 1.3557,-0.2082 2.5723,-0.5142 3.7325,-0.9825 1.1601,-0.4683 2.2636,-1.0981 3.3886,-1.9531 l 0,-0.09 z"
         id="path20"
         transform="matrix(11.111048,0,0,11.111047,0,-0.09765569)"
         inkscape:connector-curvature="0" /></g></g></svg>